<svg width="151" height="56" viewBox="0 0 151 56" fill="none" xmlns="http://www.w3.org/2000/svg">
<rect y="0.546387" width="150.082" height="54.6197" rx="8.24447" fill="white"/>
<path d="M34.4011 28.6851C34.4307 26.3774 35.6652 24.1938 37.6236 22.9851C36.3881 21.2138 34.3188 20.0907 32.1658 20.0231C29.8695 19.7811 27.6434 21.4025 26.4732 21.4025C25.2805 21.4025 23.4788 20.0471 21.5388 20.0872C19.01 20.1692 16.6525 21.6125 15.4222 23.832C12.7776 28.4287 14.7503 35.1843 17.2836 38.8999C18.5511 40.7193 20.0325 42.7517 21.9708 42.6796C23.8675 42.6006 24.5759 41.4654 26.8654 41.4654C29.1337 41.4654 29.7984 42.6796 31.776 42.6338C33.8113 42.6006 35.0936 40.8063 36.3167 38.9696C37.2273 37.6732 37.9281 36.2404 38.393 34.7242C36.0012 33.7086 34.4039 31.2922 34.4011 28.6851Z" fill="black"/>
<path d="M30.6657 17.5795C31.7754 16.2421 32.3221 14.5231 32.1897 12.7876C30.4943 12.9664 28.9282 13.7798 27.8035 15.0659C26.7037 16.3225 26.1313 18.0112 26.2395 19.6804C27.9355 19.6979 29.6029 18.9065 30.6657 17.5795Z" fill="black"/>
<path d="M102.053 26.3013V29.0977H100.307V30.9315H102.053V37.1626C102.053 39.2903 103.012 40.1414 105.424 40.1414C105.848 40.1414 106.251 40.0907 106.604 40.0299V38.2163C106.302 38.2467 106.11 38.267 105.777 38.267C104.697 38.267 104.223 37.7604 104.223 36.6053V30.9315H106.604V29.0977H104.223V26.3013H102.053Z" fill="black"/>
<path d="M112.749 40.2933C115.959 40.2933 117.927 38.1353 117.927 34.5587C117.927 31.0024 115.948 28.8342 112.749 28.8342C109.54 28.8342 107.562 31.0024 107.562 34.5587C107.562 38.1353 109.53 40.2933 112.749 40.2933ZM112.749 38.3582C110.862 38.3582 109.802 36.9701 109.802 34.5587C109.802 32.1676 110.862 30.7694 112.749 30.7694C114.626 30.7694 115.696 32.1676 115.696 34.5587C115.696 36.96 114.626 38.3582 112.749 38.3582Z" fill="black"/>
<path d="M119.61 40.0806H121.78V33.5658C121.78 32.0156 122.941 30.972 124.586 30.972C124.969 30.972 125.615 31.043 125.797 31.1038V28.9558C125.565 28.895 125.151 28.8646 124.828 28.8646C123.395 28.8646 122.174 29.6549 121.861 30.739H121.7V29.047H119.61V40.0806Z" fill="black"/>
<path d="M131.185 30.6884C132.789 30.6884 133.839 31.813 133.89 33.5455H128.339C128.46 31.8231 129.58 30.6884 131.185 30.6884ZM133.879 37.1018C133.476 37.963 132.578 38.4392 131.266 38.4392C129.53 38.4392 128.409 37.2133 128.339 35.2781V35.1565H136.1V34.3966C136.1 30.9315 134.253 28.8342 131.195 28.8342C128.097 28.8342 126.128 31.0734 126.128 34.5992C126.128 38.1251 128.056 40.2933 131.205 40.2933C133.718 40.2933 135.474 39.0775 135.969 37.1018H133.879Z" fill="black"/>
<path d="M87.823 36.006C87.9904 38.7154 90.2394 40.4481 93.5868 40.4481C97.1643 40.4481 99.4028 38.6314 99.4028 35.733C99.4028 33.4542 98.1266 32.1941 95.0303 31.4695L93.3671 31.0599C91.4005 30.5978 90.6055 29.9783 90.6055 28.8966C90.6055 27.5315 91.8399 26.6388 93.6914 26.6388C95.4488 26.6388 96.6622 27.5104 96.8818 28.9071H99.1622C99.0262 26.3553 96.7877 24.5596 93.7228 24.5596C90.4277 24.5596 88.231 26.3553 88.231 29.0541C88.231 31.2804 89.4758 32.6036 92.206 33.2442L94.1516 33.7167C96.1496 34.1893 97.0283 34.8824 97.0283 36.0375C97.0283 37.3817 95.6475 38.3583 93.7646 38.3583C91.7457 38.3583 90.344 37.4447 90.1453 36.006H87.823Z" fill="black"/>
<path d="M65.3453 28.8646C63.8517 28.8646 62.5598 29.6144 61.8937 30.8707H61.7322V29.047H59.6431V43.7483H61.813V38.4088H61.9846C62.5598 39.574 63.8012 40.2629 65.3655 40.2629C68.1409 40.2629 69.9071 38.0643 69.9071 34.5587C69.9071 31.0531 68.1409 28.8646 65.3453 28.8646ZM64.7297 38.3075C62.9131 38.3075 61.7726 36.8688 61.7726 34.5688C61.7726 32.2588 62.9131 30.8201 64.7398 30.8201C66.5766 30.8201 67.6767 32.2284 67.6767 34.5587C67.6767 36.8992 66.5766 38.3075 64.7297 38.3075Z" fill="black"/>
<path d="M77.4999 28.8646C76.0062 28.8646 74.7144 29.6144 74.0483 30.8707H73.8868V29.047H71.7976V43.7483H73.9675V38.4088H74.1391C74.7144 39.574 75.9557 40.2629 77.5201 40.2629C80.2955 40.2629 82.0617 38.0643 82.0617 34.5587C82.0617 31.0531 80.2955 28.8646 77.4999 28.8646ZM76.8842 38.3075C75.0676 38.3075 73.9271 36.8688 73.9271 34.5688C73.9271 32.2588 75.0676 30.8201 76.8943 30.8201C78.7311 30.8201 79.8312 32.2284 79.8312 34.5587C79.8312 36.8992 78.7311 38.3075 76.8842 38.3075Z" fill="black"/>
<path d="M55.75 40.0806H58.2396L52.7896 24.9271H50.2687L44.8187 40.0806H47.2246L48.6159 36.0585H54.3692L55.75 40.0806ZM51.4089 27.6785H51.5867L53.7729 34.0843H49.2121L51.4089 27.6785Z" fill="black"/>
<path d="M102.053 26.3013V29.0977H100.307V30.9315H102.053V37.1626C102.053 39.2903 103.012 40.1414 105.424 40.1414C105.848 40.1414 106.251 40.0907 106.604 40.0299V38.2163C106.302 38.2467 106.11 38.267 105.777 38.267C104.697 38.267 104.223 37.7604 104.223 36.6053V30.9315H106.604V29.0977H104.223V26.3013H102.053Z" stroke="#4A3AFF"/>
<path d="M112.749 40.2933C115.959 40.2933 117.927 38.1353 117.927 34.5587C117.927 31.0024 115.948 28.8342 112.749 28.8342C109.54 28.8342 107.562 31.0024 107.562 34.5587C107.562 38.1353 109.53 40.2933 112.749 40.2933ZM112.749 38.3582C110.862 38.3582 109.802 36.9701 109.802 34.5587C109.802 32.1676 110.862 30.7694 112.749 30.7694C114.626 30.7694 115.696 32.1676 115.696 34.5587C115.696 36.96 114.626 38.3582 112.749 38.3582Z" stroke="#4A3AFF"/>
<path d="M119.61 40.0806H121.78V33.5658C121.78 32.0156 122.941 30.972 124.586 30.972C124.969 30.972 125.615 31.043 125.797 31.1038V28.9558C125.565 28.895 125.151 28.8646 124.828 28.8646C123.395 28.8646 122.174 29.6549 121.861 30.739H121.7V29.047H119.61V40.0806Z" stroke="#4A3AFF"/>
<path d="M131.185 30.6884C132.789 30.6884 133.839 31.813 133.89 33.5455H128.339C128.46 31.8231 129.58 30.6884 131.185 30.6884ZM133.879 37.1018C133.476 37.963 132.578 38.4392 131.266 38.4392C129.53 38.4392 128.409 37.2133 128.339 35.2781V35.1565H136.1V34.3966C136.1 30.9315 134.253 28.8342 131.195 28.8342C128.097 28.8342 126.128 31.0734 126.128 34.5992C126.128 38.1251 128.056 40.2933 131.205 40.2933C133.718 40.2933 135.474 39.0775 135.969 37.1018H133.879Z" stroke="#4A3AFF"/>
<path d="M87.823 36.006C87.9904 38.7154 90.2394 40.4481 93.5868 40.4481C97.1643 40.4481 99.4028 38.6314 99.4028 35.733C99.4028 33.4542 98.1266 32.1941 95.0303 31.4695L93.3671 31.0599C91.4005 30.5978 90.6055 29.9783 90.6055 28.8966C90.6055 27.5315 91.8399 26.6388 93.6914 26.6388C95.4488 26.6388 96.6622 27.5104 96.8818 28.9071H99.1622C99.0262 26.3553 96.7877 24.5596 93.7228 24.5596C90.4277 24.5596 88.231 26.3553 88.231 29.0541C88.231 31.2804 89.4758 32.6036 92.206 33.2442L94.1516 33.7167C96.1496 34.1893 97.0283 34.8824 97.0283 36.0375C97.0283 37.3817 95.6475 38.3583 93.7646 38.3583C91.7457 38.3583 90.344 37.4447 90.1453 36.006H87.823Z" stroke="#4A3AFF"/>
<path d="M65.3453 28.8646C63.8517 28.8646 62.5598 29.6144 61.8937 30.8707H61.7322V29.047H59.6431V43.7483H61.813V38.4088H61.9846C62.5598 39.574 63.8012 40.2629 65.3655 40.2629C68.1409 40.2629 69.9071 38.0643 69.9071 34.5587C69.9071 31.0531 68.1409 28.8646 65.3453 28.8646ZM64.7297 38.3075C62.9131 38.3075 61.7726 36.8688 61.7726 34.5688C61.7726 32.2588 62.9131 30.8201 64.7398 30.8201C66.5766 30.8201 67.6767 32.2284 67.6767 34.5587C67.6767 36.8992 66.5766 38.3075 64.7297 38.3075Z" stroke="#4A3AFF"/>
<path d="M77.4999 28.8646C76.0062 28.8646 74.7144 29.6144 74.0483 30.8707H73.8868V29.047H71.7976V43.7483H73.9675V38.4088H74.1391C74.7144 39.574 75.9557 40.2629 77.5201 40.2629C80.2955 40.2629 82.0617 38.0643 82.0617 34.5587C82.0617 31.0531 80.2955 28.8646 77.4999 28.8646ZM76.8842 38.3075C75.0676 38.3075 73.9271 36.8688 73.9271 34.5688C73.9271 32.2588 75.0676 30.8201 76.8943 30.8201C78.7311 30.8201 79.8312 32.2284 79.8312 34.5587C79.8312 36.8992 78.7311 38.3075 76.8842 38.3075Z" stroke="#4A3AFF"/>
<path d="M55.75 40.0806H58.2396L52.7896 24.9271H50.2687L44.8187 40.0806H47.2246L48.6159 36.0585H54.3692L55.75 40.0806ZM51.4089 27.6785H51.5867L53.7729 34.0843H49.2121L51.4089 27.6785Z" stroke="#4A3AFF"/>
<path d="M44.7585 14.2386V20.2283H46.9128C48.6907 20.2283 49.7203 19.1283 49.7203 17.2148C49.7203 15.3303 48.6824 14.2386 46.9128 14.2386H44.7585ZM45.6847 15.0853H46.8094C48.0457 15.0853 48.7775 15.874 48.7775 17.2272C48.7775 18.6012 48.0581 19.3815 46.8094 19.3815H45.6847V15.0853Z" fill="black"/>
<path d="M52.8735 20.3155C54.1883 20.3155 54.9946 19.4314 54.9946 17.9661C54.9946 16.5091 54.1842 15.6208 52.8735 15.6208C51.5586 15.6208 50.7482 16.5091 50.7482 17.9661C50.7482 19.4314 51.5545 20.3155 52.8735 20.3155ZM52.8735 19.5227C52.1003 19.5227 51.6661 18.954 51.6661 17.9661C51.6661 16.9865 52.1003 16.4136 52.8735 16.4136C53.6425 16.4136 54.0808 16.9865 54.0808 17.9661C54.0808 18.9499 53.6425 19.5227 52.8735 19.5227Z" fill="black"/>
<path d="M61.8608 15.708H60.9718L60.1697 19.1574H60.0994L59.1732 15.708H58.3214L57.3952 19.1574H57.3291L56.5228 15.708H55.6214L56.8619 20.2283H57.7756L58.7018 16.8993H58.7721L59.7025 20.2283H60.6245L61.8608 15.708Z" fill="black"/>
<path d="M62.8846 20.2283H63.7736V17.5842C63.7736 16.8785 64.1912 16.4385 64.8486 16.4385C65.506 16.4385 65.8203 16.7997 65.8203 17.5261V20.2283H66.7092V17.3019C66.7092 16.2269 66.1552 15.6208 65.1504 15.6208C64.4723 15.6208 64.0258 15.9238 63.8066 16.4261H63.7405V15.708H62.8846V20.2283Z" fill="black"/>
<path d="M68.1093 20.2283H68.9983V13.9438H68.1093V20.2283Z" fill="black"/>
<path d="M72.3416 20.3155C73.6565 20.3155 74.4628 19.4314 74.4628 17.9661C74.4628 16.5091 73.6524 15.6208 72.3416 15.6208C71.0268 15.6208 70.2164 16.5091 70.2164 17.9661C70.2164 19.4314 71.0226 20.3155 72.3416 20.3155ZM72.3416 19.5227C71.5684 19.5227 71.1343 18.954 71.1343 17.9661C71.1343 16.9865 71.5684 16.4136 72.3416 16.4136C73.1107 16.4136 73.549 16.9865 73.549 17.9661C73.549 18.9499 73.1107 19.5227 72.3416 19.5227Z" fill="black"/>
<path d="M77.1115 19.5517C76.6277 19.5517 76.2763 19.3151 76.2763 18.9083C76.2763 18.5099 76.5575 18.2982 77.1777 18.2566L78.2775 18.1861V18.5638C78.2775 19.1242 77.7813 19.5517 77.1115 19.5517ZM76.8841 20.303C77.4754 20.303 77.9674 20.0457 78.2362 19.5932H78.3065V20.2283H79.1624V17.1401C79.1624 16.1853 78.5256 15.6208 77.3968 15.6208C76.3755 15.6208 75.6478 16.1189 75.5568 16.8951H76.4169C76.5161 16.5755 76.8593 16.3929 77.3555 16.3929C77.9633 16.3929 78.2775 16.6627 78.2775 17.1401V17.5302L77.0578 17.6008C75.9869 17.6672 75.3832 18.1363 75.3832 18.9499C75.3832 19.7759 76.0158 20.303 76.8841 20.303Z" fill="black"/>
<path d="M82.1791 20.303C82.7993 20.303 83.3244 20.0083 83.5932 19.5144H83.6635V20.2283H84.5152V13.9438H83.6263V16.4261H83.5601C83.3162 15.928 82.7952 15.6333 82.1791 15.6333C81.042 15.6333 80.3102 16.5382 80.3102 17.9661C80.3102 19.3982 81.0338 20.303 82.1791 20.303ZM82.4313 16.4344C83.1756 16.4344 83.6428 17.028 83.6428 17.9702C83.6428 18.9166 83.1797 19.5019 82.4313 19.5019C81.6788 19.5019 81.2281 18.9249 81.2281 17.9661C81.2281 17.0155 81.6829 16.4344 82.4313 16.4344Z" fill="black"/>
<path d="M90.28 20.3155C91.5948 20.3155 92.4011 19.4314 92.4011 17.9661C92.4011 16.5091 91.5907 15.6208 90.28 15.6208C88.9651 15.6208 88.1547 16.5091 88.1547 17.9661C88.1547 19.4314 88.961 20.3155 90.28 20.3155ZM90.28 19.5227C89.5067 19.5227 89.0726 18.954 89.0726 17.9661C89.0726 16.9865 89.5067 16.4136 90.28 16.4136C91.049 16.4136 91.4873 16.9865 91.4873 17.9661C91.4873 18.9499 91.049 19.5227 90.28 19.5227Z" fill="black"/>
<path d="M93.5778 20.2283H94.4668V17.5842C94.4668 16.8785 94.8844 16.4385 95.5419 16.4385C96.1993 16.4385 96.5135 16.7997 96.5135 17.5261V20.2283H97.4025V17.3019C97.4025 16.2269 96.8485 15.6208 95.8437 15.6208C95.1656 15.6208 94.719 15.9238 94.4999 16.4261H94.4337V15.708H93.5778V20.2283Z" fill="black"/>
<path d="M101.497 14.5831V15.7287H100.781V16.4801H101.497V19.0329C101.497 19.9046 101.89 20.2532 102.878 20.2532C103.051 20.2532 103.217 20.2325 103.362 20.2076V19.4646C103.238 19.477 103.159 19.4853 103.023 19.4853C102.58 19.4853 102.386 19.2778 102.386 18.8046V16.4801H103.362V15.7287H102.386V14.5831H101.497Z" fill="black"/>
<path d="M104.555 20.2283H105.444V17.5884C105.444 16.9035 105.849 16.4427 106.577 16.4427C107.205 16.4427 107.54 16.808 107.54 17.5302V20.2283H108.429V17.3102C108.429 16.2352 107.838 15.625 106.879 15.625C106.2 15.625 105.725 15.928 105.506 16.4344H105.436V13.9438H104.555V20.2283Z" fill="black"/>
<path d="M111.636 16.3804C112.293 16.3804 112.724 16.8412 112.744 17.551H110.47C110.52 16.8453 110.979 16.3804 111.636 16.3804ZM112.74 19.008C112.575 19.3608 112.207 19.5559 111.669 19.5559C110.958 19.5559 110.499 19.0536 110.47 18.2608V18.211H113.65V17.8997C113.65 16.4801 112.893 15.6208 111.64 15.6208C110.371 15.6208 109.565 16.5382 109.565 17.9827C109.565 19.4272 110.354 20.3155 111.644 20.3155C112.674 20.3155 113.393 19.8174 113.596 19.008H112.74Z" fill="black"/>
<path d="M44.7585 14.2386V20.2283H46.9128C48.6907 20.2283 49.7203 19.1283 49.7203 17.2148C49.7203 15.3303 48.6824 14.2386 46.9128 14.2386H44.7585ZM45.6847 15.0853H46.8094C48.0457 15.0853 48.7775 15.874 48.7775 17.2272C48.7775 18.6012 48.0581 19.3815 46.8094 19.3815H45.6847V15.0853Z" stroke="#4A3AFF"/>
<path d="M52.8735 20.3155C54.1883 20.3155 54.9946 19.4314 54.9946 17.9661C54.9946 16.5091 54.1842 15.6208 52.8735 15.6208C51.5586 15.6208 50.7482 16.5091 50.7482 17.9661C50.7482 19.4314 51.5545 20.3155 52.8735 20.3155ZM52.8735 19.5227C52.1003 19.5227 51.6661 18.954 51.6661 17.9661C51.6661 16.9865 52.1003 16.4136 52.8735 16.4136C53.6425 16.4136 54.0808 16.9865 54.0808 17.9661C54.0808 18.9499 53.6425 19.5227 52.8735 19.5227Z" stroke="#4A3AFF"/>
<path d="M61.8608 15.708H60.9718L60.1697 19.1574H60.0994L59.1732 15.708H58.3214L57.3952 19.1574H57.3291L56.5228 15.708H55.6214L56.8619 20.2283H57.7756L58.7018 16.8993H58.7721L59.7025 20.2283H60.6245L61.8608 15.708Z" stroke="#4A3AFF"/>
<path d="M62.8846 20.2283H63.7736V17.5842C63.7736 16.8785 64.1912 16.4385 64.8486 16.4385C65.506 16.4385 65.8203 16.7997 65.8203 17.5261V20.2283H66.7092V17.3019C66.7092 16.2269 66.1552 15.6208 65.1504 15.6208C64.4723 15.6208 64.0258 15.9238 63.8066 16.4261H63.7405V15.708H62.8846V20.2283Z" stroke="#4A3AFF"/>
<path d="M68.1093 20.2283H68.9983V13.9438H68.1093V20.2283Z" stroke="#4A3AFF"/>
<path d="M72.3416 20.3155C73.6565 20.3155 74.4628 19.4314 74.4628 17.9661C74.4628 16.5091 73.6524 15.6208 72.3416 15.6208C71.0268 15.6208 70.2164 16.5091 70.2164 17.9661C70.2164 19.4314 71.0226 20.3155 72.3416 20.3155ZM72.3416 19.5227C71.5684 19.5227 71.1343 18.954 71.1343 17.9661C71.1343 16.9865 71.5684 16.4136 72.3416 16.4136C73.1107 16.4136 73.549 16.9865 73.549 17.9661C73.549 18.9499 73.1107 19.5227 72.3416 19.5227Z" stroke="#4A3AFF"/>
<path d="M77.1115 19.5517C76.6277 19.5517 76.2763 19.3151 76.2763 18.9083C76.2763 18.5099 76.5575 18.2982 77.1777 18.2566L78.2775 18.1861V18.5638C78.2775 19.1242 77.7813 19.5517 77.1115 19.5517ZM76.8841 20.303C77.4754 20.303 77.9674 20.0457 78.2362 19.5932H78.3065V20.2283H79.1624V17.1401C79.1624 16.1853 78.5256 15.6208 77.3968 15.6208C76.3755 15.6208 75.6478 16.1189 75.5568 16.8951H76.4169C76.5161 16.5755 76.8593 16.3929 77.3555 16.3929C77.9633 16.3929 78.2775 16.6627 78.2775 17.1401V17.5302L77.0578 17.6008C75.9869 17.6672 75.3832 18.1363 75.3832 18.9499C75.3832 19.7759 76.0158 20.303 76.8841 20.303Z" stroke="#4A3AFF"/>
<path d="M82.1791 20.303C82.7993 20.303 83.3244 20.0083 83.5932 19.5144H83.6635V20.2283H84.5152V13.9438H83.6263V16.4261H83.5601C83.3162 15.928 82.7952 15.6333 82.1791 15.6333C81.042 15.6333 80.3102 16.5382 80.3102 17.9661C80.3102 19.3982 81.0338 20.303 82.1791 20.303ZM82.4313 16.4344C83.1756 16.4344 83.6428 17.028 83.6428 17.9702C83.6428 18.9166 83.1797 19.5019 82.4313 19.5019C81.6788 19.5019 81.2281 18.9249 81.2281 17.9661C81.2281 17.0155 81.6829 16.4344 82.4313 16.4344Z" stroke="#4A3AFF"/>
<path d="M90.28 20.3155C91.5948 20.3155 92.4011 19.4314 92.4011 17.9661C92.4011 16.5091 91.5907 15.6208 90.28 15.6208C88.9651 15.6208 88.1547 16.5091 88.1547 17.9661C88.1547 19.4314 88.961 20.3155 90.28 20.3155ZM90.28 19.5227C89.5067 19.5227 89.0726 18.954 89.0726 17.9661C89.0726 16.9865 89.5067 16.4136 90.28 16.4136C91.049 16.4136 91.4873 16.9865 91.4873 17.9661C91.4873 18.9499 91.049 19.5227 90.28 19.5227Z" stroke="#4A3AFF"/>
<path d="M93.5778 20.2283H94.4668V17.5842C94.4668 16.8785 94.8844 16.4385 95.5419 16.4385C96.1993 16.4385 96.5135 16.7997 96.5135 17.5261V20.2283H97.4025V17.3019C97.4025 16.2269 96.8485 15.6208 95.8437 15.6208C95.1656 15.6208 94.719 15.9238 94.4999 16.4261H94.4337V15.708H93.5778V20.2283Z" stroke="#4A3AFF"/>
<path d="M101.497 14.5831V15.7287H100.781V16.4801H101.497V19.0329C101.497 19.9046 101.89 20.2532 102.878 20.2532C103.051 20.2532 103.217 20.2325 103.362 20.2076V19.4646C103.238 19.477 103.159 19.4853 103.023 19.4853C102.58 19.4853 102.386 19.2778 102.386 18.8046V16.4801H103.362V15.7287H102.386V14.5831H101.497Z" stroke="#4A3AFF"/>
<path d="M104.555 20.2283H105.444V17.5884C105.444 16.9035 105.849 16.4427 106.577 16.4427C107.205 16.4427 107.54 16.808 107.54 17.5302V20.2283H108.429V17.3102C108.429 16.2352 107.838 15.625 106.879 15.625C106.2 15.625 105.725 15.928 105.506 16.4344H105.436V13.9438H104.555V20.2283Z" stroke="#4A3AFF"/>
<path d="M111.636 16.3804C112.293 16.3804 112.724 16.8412 112.744 17.551H110.47C110.52 16.8453 110.979 16.3804 111.636 16.3804ZM112.74 19.008C112.575 19.3608 112.207 19.5559 111.669 19.5559C110.958 19.5559 110.499 19.0536 110.47 18.2608V18.211H113.65V17.8997C113.65 16.4801 112.893 15.6208 111.64 15.6208C110.371 15.6208 109.565 16.5382 109.565 17.9827C109.565 19.4272 110.354 20.3155 111.644 20.3155C112.674 20.3155 113.393 19.8174 113.596 19.008H112.74Z" stroke="#4A3AFF"/>
</svg>
