<svg width="151" height="57" viewBox="0 0 151 57" fill="none" xmlns="http://www.w3.org/2000/svg">
<rect x="0.0820312" y="0.546387" width="150" height="55.9072" rx="11.7053" fill="white"/>
<g filter="url(#filter0_ii_2347_44)">
<path d="M14.0484 16.9075C14.0484 16.2589 14.223 15.7736 14.5006 15.4626L28.0802 29.0963C28.1266 29.1429 28.1527 29.2061 28.1527 29.2719C28.1527 29.3378 28.1266 29.4009 28.0802 29.4476L14.5001 43.0806C14.2227 42.7697 14.0484 42.2856 14.0484 41.6364V16.9075Z" fill="black" stroke="white" stroke-width="0.292632"/>
<path d="M32.9297 24.677L33.0024 24.55L32.9299 24.6771L38.3797 27.7855C39.1309 28.2141 39.4729 28.7586 39.4729 29.2726C39.4729 29.7867 39.1309 30.3314 38.3796 30.7606L32.9314 33.8681C32.9312 33.8682 32.9311 33.8683 32.931 33.8683C32.9263 33.8707 32.9206 33.8699 32.9169 33.8661L28.5177 29.4476C28.4712 29.4009 28.4451 29.3378 28.4451 29.2719C28.4451 29.2061 28.4712 29.1429 28.5177 29.0963L32.9182 24.6785C32.9213 24.6755 32.926 24.6748 32.9297 24.677Z" fill="black" stroke="white" stroke-width="0.292632"/>
<g filter="url(#filter1_i_2347_44)">
<path d="M33.0025 33.995L28.2979 29.272L14.4177 43.2074C14.9301 43.753 15.7777 43.8201 16.7322 43.2767L33.0025 33.995Z" fill="black"/>
</g>
<path d="M28.2979 29.4793L14.6268 43.2048C15.0852 43.5951 15.806 43.6356 16.6597 43.1496L28.2979 29.4793ZM28.2979 29.4793L32.7638 33.9627L16.6598 43.1496L28.2979 29.4793Z" stroke="white" stroke-width="0.292632"/>
<path d="M16.6597 15.3954L16.6597 15.3955L32.7639 24.5813L28.2989 29.0658L14.6268 15.3402C15.0853 14.9497 15.8062 14.9085 16.6597 15.3954Z" fill="black" stroke="white" stroke-width="0.292632"/>
</g>
<path d="M74.5751 30.625C72.1009 30.625 70.0843 32.506 70.0843 35.0967C70.0843 37.6716 72.1009 39.5683 74.5751 39.5683C77.0503 39.5683 79.0669 37.6716 79.0669 35.0967C79.0658 32.506 77.0493 30.625 74.5751 30.625ZM74.5751 37.8083C73.2191 37.8083 72.0504 36.6906 72.0504 35.0977C72.0504 33.488 73.2202 32.3872 74.5751 32.3872C75.9311 32.3872 77.0998 33.488 77.0998 35.0977C77.0998 36.6896 75.9311 37.8083 74.5751 37.8083ZM64.7773 30.625C62.3031 30.625 60.2865 32.506 60.2865 35.0967C60.2865 37.6716 62.3031 39.5683 64.7773 39.5683C67.2525 39.5683 69.2691 37.6716 69.2691 35.0967C69.2691 32.506 67.2525 30.625 64.7773 30.625ZM64.7773 37.8083C63.4213 37.8083 62.2526 36.6906 62.2526 35.0977C62.2526 33.488 63.4224 32.3872 64.7773 32.3872C66.1332 32.3872 67.302 33.488 67.302 35.0977C67.303 36.6896 66.1332 37.8083 64.7773 37.8083ZM53.1239 31.9982V33.8949H57.6662C57.5305 34.9621 57.1749 35.7412 56.6321 36.2827C55.9715 36.943 54.9374 37.6716 53.1239 37.6716C50.3278 37.6716 48.1419 35.4184 48.1419 32.6238C48.1419 29.8291 50.3278 27.5759 53.1239 27.5759C54.6323 27.5759 55.7337 28.1689 56.5469 28.9312L57.886 27.5928C56.7499 26.5088 55.2425 25.6792 53.1239 25.6792C49.2937 25.6792 46.0737 28.7956 46.0737 32.6238C46.0737 36.452 49.2937 39.5683 53.1239 39.5683C55.1909 39.5683 56.751 38.8902 57.9702 37.6201C59.2241 36.3668 59.6144 34.6046 59.6144 33.1821C59.6144 32.7426 59.5807 32.3357 59.5123 31.9971L53.1239 31.9982ZM100.785 33.4712C100.413 32.4724 99.2768 30.625 96.9552 30.625C94.6504 30.625 92.7348 32.4377 92.7348 35.0967C92.7348 37.6033 94.6336 39.5683 97.1751 39.5683C99.2253 39.5683 100.412 38.3151 100.904 37.5864L99.3789 36.5697C98.8708 37.3152 98.1755 37.8062 97.1751 37.8062C96.1757 37.8062 95.4635 37.3488 95.0059 36.4509L100.988 33.978L100.785 33.4712ZM94.6841 34.9621C94.6336 33.2336 96.0232 32.3536 97.0236 32.3536C97.8031 32.3536 98.4637 32.7436 98.6846 33.3019L94.6841 34.9621ZM89.8209 39.2981H91.7859V26.1544H89.8209V39.2981ZM86.5999 31.6249H86.5325C86.0918 31.0992 85.2439 30.625 84.1772 30.625C81.9398 30.625 79.8895 32.5901 79.8895 35.1146C79.8895 37.6211 81.9398 39.5694 84.1772 39.5694C85.245 39.5694 86.0918 39.0952 86.5325 38.5537H86.5999V39.1972C86.5999 40.9078 85.6847 41.8226 84.2109 41.8226C83.0075 41.8226 82.2616 40.9594 81.9566 40.2307L80.2451 40.9425C80.7363 42.1275 82.0407 43.5847 84.2109 43.5847C86.5157 43.5847 88.465 42.2295 88.465 38.9259V30.8974H86.6009L86.5999 31.6249ZM84.3466 37.8083C82.9906 37.8083 81.8556 36.6728 81.8556 35.1146C81.8556 33.5385 82.9906 32.3872 84.3466 32.3872C85.6847 32.3872 86.7356 33.5385 86.7356 35.1146C86.7356 36.6728 85.6847 37.8083 84.3466 37.8083ZM109.994 26.1544H105.291V39.2981H107.253V34.3186H109.993C112.168 34.3186 114.308 32.7447 114.308 30.2371C114.308 27.7295 112.169 26.1544 109.994 26.1544ZM110.045 32.4892H107.253V27.9839H110.045C111.512 27.9839 112.345 29.1983 112.345 30.2371C112.345 31.2548 111.512 32.4892 110.045 32.4892ZM122.176 30.6019C120.754 30.6019 119.283 31.2275 118.674 32.6143L120.416 33.3408C120.788 32.6143 121.482 32.3767 122.209 32.3767C123.224 32.3767 124.256 32.9855 124.273 34.0674V34.203C123.918 34.0001 123.156 33.6962 122.226 33.6962C120.348 33.6962 118.436 34.7276 118.436 36.6549C118.436 38.4139 119.976 39.5463 121.701 39.5463C123.02 39.5463 123.748 38.9543 124.205 38.2604H124.272V39.275H126.168V34.2356C126.169 31.9036 124.425 30.6019 122.176 30.6019ZM121.938 37.8051C121.296 37.8051 120.399 37.4834 120.399 36.6885C120.399 35.6739 121.516 35.2849 122.481 35.2849C123.342 35.2849 123.749 35.471 124.273 35.7244C124.121 36.943 123.072 37.8051 121.938 37.8051ZM133.071 30.8889L130.82 36.5876H130.753L128.418 30.8889H126.303L129.805 38.8534L127.809 43.284H129.856L135.253 30.8889H133.071ZM115.392 39.2981H117.353V26.1544H115.392V39.2981Z" fill="black"/>
<path d="M52.8788 18.3798C52.8788 19.245 52.6181 19.9336 52.0958 20.4477C51.503 21.0588 50.7295 21.3644 49.7794 21.3644C48.8692 21.3644 48.0946 21.0547 47.4588 20.4353C46.8219 19.8148 46.5034 19.0468 46.5034 18.13C46.5034 17.2122 46.8219 16.4442 47.4588 15.8248C48.0946 15.2043 48.8692 14.8946 49.7794 14.8946C50.2313 14.8946 50.6633 14.9813 51.0732 15.1537C51.4841 15.3272 51.8131 15.5574 52.059 15.8454L51.5051 16.3905C51.0879 15.9001 50.513 15.6554 49.7783 15.6554C49.1141 15.6554 48.5403 15.8846 48.0557 16.343C47.5712 16.8014 47.3295 17.397 47.3295 18.129C47.3295 18.8609 47.5712 19.4566 48.0557 19.915C48.5403 20.3733 49.1141 20.6025 49.7783 20.6025C50.4825 20.6025 51.07 20.3723 51.5398 19.9108C51.8446 19.6104 52.0212 19.1923 52.0685 18.6565H49.7783V17.9122H52.8336C52.8651 18.0743 52.8788 18.2302 52.8788 18.3798Z" fill="black"/>
<path d="M57.724 15.7928H54.8527V17.7564H57.4423V18.5007H54.8527V20.4642H57.724V21.2261H54.0424V15.032H57.724V15.7928Z" fill="black"/>
<path d="M61.1407 21.2261H60.3304V15.7928H58.5689V15.032H62.9022V15.7928H61.1407V21.2261Z" fill="black"/>
<path d="M66.0373 21.2261V15.032H66.8476V21.2261H66.0373Z" fill="black"/>
<path d="M70.4411 21.2261H69.6308V15.7928H67.8693V15.032H72.2026V15.7928H70.4411V21.2261Z" fill="black"/>
<path d="M80.4055 20.426C79.7854 21.0517 79.015 21.3645 78.0932 21.3645C77.1715 21.3645 76.4011 21.0517 75.7821 20.426C75.162 19.8004 74.853 19.0344 74.853 18.129C74.853 17.2237 75.162 16.4576 75.7821 15.832C76.4011 15.2064 77.1715 14.8926 78.0932 14.8926C79.0097 14.8926 79.7791 15.2074 80.4013 15.8362C81.0234 16.4649 81.3345 17.2288 81.3345 18.129C81.3345 19.0344 81.0245 19.8004 80.4055 20.426ZM76.3801 19.9068C76.8468 20.3713 77.4175 20.6026 78.0932 20.6026C78.769 20.6026 79.3408 20.3703 79.8064 19.9068C80.273 19.4422 80.5074 18.8496 80.5074 18.129C80.5074 17.4084 80.273 16.8159 79.8064 16.3513C79.3408 15.8867 78.769 15.6555 78.0932 15.6555C77.4175 15.6555 76.8468 15.8878 76.3801 16.3513C75.9145 16.8159 75.6802 17.4084 75.6802 18.129C75.6802 18.8496 75.9145 19.4422 76.3801 19.9068Z" fill="black"/>
<path d="M82.4717 21.2261V15.032H83.4576L86.5223 19.85H86.557L86.5223 18.6566V15.032H87.3326V21.2261H86.4866L83.28 16.1738H83.2453L83.28 17.3672V21.2261H82.4717Z" fill="black"/>
<defs>
<filter id="filter0_ii_2347_44" x="13.9021" y="14.8926" width="25.717" height="28.7593" filterUnits="userSpaceOnUse" color-interpolation-filters="sRGB">
<feFlood flood-opacity="0" result="BackgroundImageFix"/>
<feBlend mode="normal" in="SourceGraphic" in2="BackgroundImageFix" result="shape"/>
<feColorMatrix in="SourceAlpha" type="matrix" values="0 0 0 0 0 0 0 0 0 0 0 0 0 0 0 0 0 0 127 0" result="hardAlpha"/>
<feOffset dy="-0.232642"/>
<feComposite in2="hardAlpha" operator="arithmetic" k2="-1" k3="1"/>
<feColorMatrix type="matrix" values="0 0 0 0 0 0 0 0 0 0 0 0 0 0 0 0 0 0 0.12 0"/>
<feBlend mode="normal" in2="shape" result="effect1_innerShadow_2347_44"/>
<feColorMatrix in="SourceAlpha" type="matrix" values="0 0 0 0 0 0 0 0 0 0 0 0 0 0 0 0 0 0 127 0" result="hardAlpha"/>
<feOffset dy="0.232642"/>
<feComposite in2="hardAlpha" operator="arithmetic" k2="-1" k3="1"/>
<feColorMatrix type="matrix" values="0 0 0 0 1 0 0 0 0 1 0 0 0 0 1 0 0 0 0.25 0"/>
<feBlend mode="normal" in2="effect1_innerShadow_2347_44" result="effect2_innerShadow_2347_44"/>
</filter>
<filter id="filter1_i_2347_44" x="14.4177" y="29.272" width="18.5848" height="14.3799" filterUnits="userSpaceOnUse" color-interpolation-filters="sRGB">
<feFlood flood-opacity="0" result="BackgroundImageFix"/>
<feBlend mode="normal" in="SourceGraphic" in2="BackgroundImageFix" result="shape"/>
<feColorMatrix in="SourceAlpha" type="matrix" values="0 0 0 0 0 0 0 0 0 0 0 0 0 0 0 0 0 0 127 0" result="hardAlpha"/>
<feOffset dy="-0.232642"/>
<feComposite in2="hardAlpha" operator="arithmetic" k2="-1" k3="1"/>
<feColorMatrix type="matrix" values="0 0 0 0 0 0 0 0 0 0 0 0 0 0 0 0 0 0 0.08 0"/>
<feBlend mode="normal" in2="shape" result="effect1_innerShadow_2347_44"/>
</filter>
</defs>
</svg>
