<svg width="23" height="23" viewBox="0 0 23 23" fill="none" xmlns="http://www.w3.org/2000/svg">
<g id="Group">
<path id="Vector" fill-rule="evenodd" clip-rule="evenodd" d="M3.63466 15.4315C4.09007 14.5484 5.05343 13.9565 6.2196 14.1031C7.33876 14.2432 8.60541 14.4534 9.87944 14.7724C11.9509 15.2905 13.7338 16.3396 14.9617 17.219L15.3305 17.491L15.5001 17.6201L15.8099 17.8653L16.0781 18.0865L16.398 18.3649C17.1761 19.0573 16.6469 20.1884 15.7675 20.2714L15.6642 20.276H7.74069C7.08882 20.2759 6.44437 20.1376 5.84989 19.8702C5.25541 19.6027 4.72441 19.2122 4.29196 18.7245L4.14169 18.5456L3.95732 18.3161C3.24471 17.4246 3.18479 16.3036 3.63466 15.4315ZM5.99098 15.9321C5.62223 15.886 5.38899 16.0529 5.27283 16.2769C5.21182 16.4001 5.18429 16.5372 5.19303 16.6744C5.20177 16.8116 5.24646 16.9441 5.32262 17.0586L5.39729 17.1646L5.58166 17.3951C5.8219 17.6953 6.12208 17.942 6.46303 18.1196C6.80398 18.2972 7.17821 18.4018 7.56185 18.4267L7.74069 18.4322H13.4757C12.4155 17.7196 11.0078 16.9545 9.43233 16.5608C8.29871 16.2834 7.14955 16.0728 5.99098 15.9321ZM17.9532 1.83848C18.5248 1.83848 18.9433 2.15007 19.207 2.48748C19.4586 2.80737 19.6218 3.20654 19.7352 3.59004C19.9657 4.36718 20.0735 5.36649 20.115 6.36396C20.1491 7.20379 20.1371 8.0934 20.0938 8.92309L20.0551 9.53152C19.9906 10.4239 19.8892 11.2047 19.7749 11.7182C19.2835 13.9289 18.4243 15.2647 17.4628 15.9929C16.5418 16.6899 15.4743 16.8411 14.7755 16.4908C14.4704 16.3386 14.1745 16.0649 13.9292 15.7809C13.6344 15.4346 13.3861 15.0513 13.1908 14.6406C12.7612 13.7417 12.4966 12.5267 12.9299 11.2269C13.1982 10.4221 13.7154 9.92055 14.1708 9.54535L14.4639 9.30935C14.9829 8.89635 15.4144 8.54235 15.7453 7.87952C15.8311 7.70806 15.8938 7.36327 15.9085 6.77788L15.9113 6.49855L15.9039 5.81084C15.8993 5.53427 15.8947 5.24204 15.8974 4.95902C15.9039 4.3598 15.9417 3.64996 16.174 3.07195C16.2975 2.76496 16.4948 2.44415 16.8166 2.20077C17.1451 1.958 17.5448 1.83063 17.9532 1.83848ZM17.8638 3.82051C17.7873 4.05282 17.7467 4.42895 17.7412 4.97746V5.23743L17.7495 5.8726C17.7541 6.18143 17.7587 6.50685 17.7513 6.82213C17.7366 7.41398 17.6813 8.1312 17.3946 8.70368C16.9936 9.50755 16.4791 10.0284 16.021 10.4184L15.7536 10.6396L15.6126 10.7512C15.0641 11.1881 14.8115 11.4121 14.6796 11.8095C14.4363 12.5378 14.569 13.2504 14.8548 13.845C14.9958 14.1427 15.1682 14.3935 15.3277 14.5788C15.4015 14.6654 15.4651 14.7272 15.5112 14.7687L15.5803 14.8277L15.6679 14.824C15.7905 14.8139 16.0311 14.765 16.3501 14.5235C16.8543 14.1409 17.5448 13.2559 17.9753 11.3181C18.0141 11.142 18.0528 10.9162 18.0887 10.6534L18.1404 10.2321C18.1496 10.1584 18.157 10.0819 18.1643 10.0035L18.2077 9.51493L18.2436 8.9913L18.2584 8.71935L18.2796 8.1607C18.2972 7.58708 18.2951 7.01302 18.2731 6.43956C18.2335 5.49279 18.133 4.67232 17.9671 4.11366C17.9385 4.01368 17.904 3.91641 17.8638 3.82051Z" fill="#2B2B2B"/>
</g>
</svg>
