<svg width="22" height="23" viewBox="0 0 22 23" fill="none" xmlns="http://www.w3.org/2000/svg">
<g id="Group">
<path id="Vector" d="M15 21.5573V7.55725C15 4.72925 15 3.31425 14.121 2.43625C13.243 1.55725 11.828 1.55725 9 1.55725H8C5.172 1.55725 3.757 1.55725 2.879 2.43625C2 3.31425 2 4.72925 2 7.55725V21.5573" stroke="#2B2B2B" stroke-width="1.5"/>
<path id="Vector_2" d="M10 5.55725H7C6.057 5.55725 5.586 5.55725 5.293 5.85025C5 6.14325 5 6.61425 5 7.55725C5 8.50025 5 8.97125 5.293 9.26425C5.586 9.55725 6.057 9.55725 7 9.55725H10C10.943 9.55725 11.414 9.55725 11.707 9.26425C12 8.97125 12 8.50025 12 7.55725C12 6.61425 12 6.14325 11.707 5.85025C11.414 5.55725 10.943 5.55725 10 5.55725Z" stroke="#2B2B2B" stroke-width="1.5"/>
<path id="Vector_3" d="M6 16.5573H11M16 21.5573H1M18.5 3.55725L19.733 4.54325C19.871 4.65325 19.94 4.70925 20.003 4.76525C20.5941 5.2955 20.9508 6.03844 20.995 6.83125C21 6.91525 21 7.00325 21 7.17925V18.0573C21 18.4551 20.842 18.8366 20.5607 19.1179C20.2794 19.3992 19.8978 19.5573 19.5 19.5573C19.1022 19.5573 18.7206 19.3992 18.4393 19.1179C18.158 18.8366 18 18.4551 18 18.0573V17.9863C18 17.1963 17.36 16.5573 16.571 16.5573H15" stroke="#2B2B2B" stroke-width="1.5" stroke-linecap="round"/>
<path id="Vector_4" d="M21 7.55725H19.5C19.1022 7.55725 18.7206 7.71529 18.4393 7.99659C18.158 8.2779 18 8.65943 18 9.05725V11.4763C18 11.7911 18.0991 12.098 18.2833 12.3534C18.4674 12.6088 18.7273 12.7998 19.026 12.8993L21 13.5573" stroke="#2B2B2B" stroke-width="1.5" stroke-linecap="round"/>
</g>
</svg>
