<svg width="22" height="20" viewBox="0 0 22 20" fill="none" xmlns="http://www.w3.org/2000/svg">
<path id="Vector" d="M11 0.587372C5.15043 0.587372 0.390289 5.34756 0.390289 11.1971C0.390289 13.4441 1.0933 15.5298 2.28994 17.2472L3.68845 16.3149C2.86213 15.1356 2.33532 13.7729 2.15352 12.3444H3.4887V11.4994H2.08573C2.08244 11.3989 2.08033 11.2982 2.08033 11.197C2.08033 9.06674 2.82282 7.11417 4.06313 5.58243L4.87998 6.39929L5.47746 5.80181L4.62619 4.95059C6.15216 3.39364 8.24593 2.39572 10.5775 2.28765V3.6594H11.4225V2.28774C13.7541 2.39581 15.8478 3.39378 17.3738 4.95073L16.5225 5.80195L17.12 6.39943L17.9368 5.58257C19.1771 7.11441 19.9197 9.06688 19.9197 11.1973C19.9197 11.2984 19.9176 11.3991 19.9143 11.4995H18.5113V12.3445H19.8464C19.6647 13.7729 19.1379 15.1356 18.3116 16.3149L19.7101 17.2472C20.9067 15.5299 21.6097 13.4442 21.6097 11.1972C21.6097 5.34766 16.8496 0.587466 11 0.587466V0.587372ZM11.7431 3.69658C12.5902 4.16381 13.3396 4.82331 13.9429 5.63246C14.5462 6.44161 14.99 7.38241 15.2457 8.39405L17.5913 7.56931C17.5269 7.45787 17.4596 7.34811 17.3895 7.24013L17.1484 7.48204L15.7228 6.06006L15.4524 5.79031L15.8209 5.42066C14.6657 4.44932 13.2447 3.8485 11.7431 3.69653L11.7431 3.69658ZM19.0737 7.91436L10.8426 10.7593C10.2726 10.8374 9.82636 11.3321 9.82636 11.9219C9.82636 12.5651 10.3568 13.0956 11 13.0956C11.3178 13.0956 11.6079 12.9658 11.8203 12.7572L19.0737 7.91436ZM18.2985 9.43174L15.4483 11.3434C15.336 12.346 15.0428 13.3131 14.5862 14.1869C14.1296 15.0607 13.5191 15.8232 12.7912 16.4287H16.3617C17.2441 15.5292 17.886 14.4221 18.2284 13.2095H17.6888V10.7442H18.4879C18.4636 10.3019 18.4002 9.86279 18.2985 9.43174ZM4.99096 17.8371V19.5271H17.009V17.8371H4.99096Z" fill="#2B2B2B"/>
</svg>
