<svg width="25" height="25" viewBox="0 0 25 25" fill="none" xmlns="http://www.w3.org/2000/svg">
<g id="clarity:date-solid" clip-path="url(#clip0_10_758)">
<path id="Vector" d="M22 4.97298H19.3333V6.97298C19.3333 7.16558 19.2954 7.3563 19.2217 7.53425C19.148 7.71219 19.0399 7.87388 18.9038 8.01007C18.7676 8.14626 18.6059 8.25429 18.4279 8.328C18.25 8.40171 18.0593 8.43964 17.8667 8.43964C17.6741 8.43964 17.4833 8.40171 17.3054 8.328C17.1275 8.25429 16.9658 8.14626 16.8296 8.01007C16.6934 7.87388 16.5854 7.71219 16.5116 7.53425C16.4379 7.3563 16.4 7.16558 16.4 6.97298V4.97298H8.63333V6.97298C8.63333 7.36196 8.47881 7.73501 8.20376 8.01007C7.9287 8.28512 7.55565 8.43964 7.16667 8.43964C6.77768 8.43964 6.40463 8.28512 6.12958 8.01007C5.85452 7.73501 5.7 7.36196 5.7 6.97298V4.97298H3.03333C2.87468 4.97117 2.71728 5.0012 2.57044 5.06129C2.42359 5.12137 2.29029 5.21029 2.17841 5.32279C2.06653 5.4353 1.97835 5.56909 1.91908 5.71626C1.8598 5.86344 1.83065 6.02101 1.83333 6.17964V21.0996C1.83068 21.2555 1.85876 21.4103 1.91596 21.5553C1.97317 21.7003 2.05837 21.8326 2.16671 21.9447C2.27505 22.0567 2.4044 22.1463 2.54738 22.2084C2.69036 22.2704 2.84416 22.3037 3 22.3063H22C22.1558 22.3037 22.3096 22.2704 22.4526 22.2084C22.5956 22.1463 22.725 22.0567 22.8333 21.9447C22.9416 21.8326 23.0268 21.7003 23.084 21.5553C23.1412 21.4103 23.1693 21.2555 23.1667 21.0996V6.17964C23.1693 6.0238 23.1412 5.86897 23.084 5.72398C23.0268 5.57899 22.9416 5.44669 22.8333 5.33464C22.725 5.22258 22.5956 5.13297 22.4526 5.07092C22.3096 5.00886 22.1558 4.97558 22 4.97298ZM7.16667 18.3063H5.83333V16.973H7.16667V18.3063ZM7.16667 14.973H5.83333V13.6396H7.16667V14.973ZM7.16667 11.6396H5.83333V10.3063H7.16667V11.6396ZM11.1667 18.3063H9.83333V16.973H11.1667V18.3063ZM11.1667 14.973H9.83333V13.6396H11.1667V14.973ZM11.1667 11.6396H9.83333V10.3063H11.1667V11.6396ZM15.1667 18.3063H13.8333V16.973H15.1667V18.3063ZM15.1667 14.973H13.8333V13.6396H15.1667V14.973ZM15.1667 11.6396H13.8333V10.3063H15.1667V11.6396ZM19.1667 18.3063H17.8333V16.973H19.1667V18.3063ZM19.1667 14.973H17.8333V13.6396H19.1667V14.973ZM19.1667 11.6396H17.8333V10.3063H19.1667V11.6396Z" fill="#2B2B2B"/>
<path id="Vector_2" d="M7.16667 7.63973C7.34348 7.63973 7.51305 7.56949 7.63807 7.44447C7.7631 7.31944 7.83333 7.14987 7.83333 6.97306V2.97306C7.83333 2.79625 7.7631 2.62668 7.63807 2.50166C7.51305 2.37663 7.34348 2.3064 7.16667 2.3064C6.98986 2.3064 6.82029 2.37663 6.69526 2.50166C6.57024 2.62668 6.5 2.79625 6.5 2.97306V6.97306C6.5 7.14987 6.57024 7.31944 6.69526 7.44447C6.82029 7.56949 6.98986 7.63973 7.16667 7.63973Z" fill="#2B2B2B"/>
<path id="Vector_3" d="M17.8333 7.63973C18.0101 7.63973 18.1797 7.56949 18.3047 7.44447C18.4298 7.31944 18.5 7.14987 18.5 6.97306V2.97306C18.5 2.79625 18.4298 2.62668 18.3047 2.50166C18.1797 2.37663 18.0101 2.3064 17.8333 2.3064C17.6565 2.3064 17.487 2.37663 17.3619 2.50166C17.2369 2.62668 17.1667 2.79625 17.1667 2.97306V6.97306C17.1667 7.14987 17.2369 7.31944 17.3619 7.44447C17.487 7.56949 17.6565 7.63973 17.8333 7.63973Z" fill="#2B2B2B"/>
</g>
<defs>
<clipPath id="clip0_10_758">
<rect width="24" height="24" fill="white" transform="translate(0.5 0.973022)"/>
</clipPath>
</defs>
</svg>
