<svg width="25" height="25" viewBox="0 0 25 25" fill="none" xmlns="http://www.w3.org/2000/svg">
<g id="ph:car-fill">
<path id="Vector" d="M23 11.473H21.9875L19.3831 5.61365C19.2653 5.34855 19.0731 5.12332 18.8298 4.96524C18.5865 4.80716 18.3026 4.72303 18.0125 4.72302H6.9875C6.69738 4.72303 6.41349 4.80716 6.17022 4.96524C5.92695 5.12332 5.73474 5.34855 5.61688 5.61365L3.0125 11.473H2C1.80109 11.473 1.61032 11.552 1.46967 11.6927C1.32902 11.8333 1.25 12.0241 1.25 12.223C1.25 12.4219 1.32902 12.6127 1.46967 12.7534C1.61032 12.894 1.80109 12.973 2 12.973H2.75V20.473C2.75 20.8708 2.90804 21.2524 3.18934 21.5337C3.47064 21.815 3.85218 21.973 4.25 21.973H6.5C6.89782 21.973 7.27936 21.815 7.56066 21.5337C7.84196 21.2524 8 20.8708 8 20.473V18.973H17V20.473C17 20.8708 17.158 21.2524 17.4393 21.5337C17.7206 21.815 18.1022 21.973 18.5 21.973H20.75C21.1478 21.973 21.5294 21.815 21.8107 21.5337C22.092 21.2524 22.25 20.8708 22.25 20.473V12.973H23C23.1989 12.973 23.3897 12.894 23.5303 12.7534C23.671 12.6127 23.75 12.4219 23.75 12.223C23.75 12.0241 23.671 11.8333 23.5303 11.6927C23.3897 11.552 23.1989 11.473 23 11.473ZM8 15.973H6.5C6.30109 15.973 6.11032 15.894 5.96967 15.7534C5.82902 15.6127 5.75 15.4219 5.75 15.223C5.75 15.0241 5.82902 14.8333 5.96967 14.6927C6.11032 14.552 6.30109 14.473 6.5 14.473H8C8.19891 14.473 8.38968 14.552 8.53033 14.6927C8.67098 14.8333 8.75 15.0241 8.75 15.223C8.75 15.4219 8.67098 15.6127 8.53033 15.7534C8.38968 15.894 8.19891 15.973 8 15.973ZM17 15.973C16.8011 15.973 16.6103 15.894 16.4697 15.7534C16.329 15.6127 16.25 15.4219 16.25 15.223C16.25 15.0241 16.329 14.8333 16.4697 14.6927C16.6103 14.552 16.8011 14.473 17 14.473H18.5C18.6989 14.473 18.8897 14.552 19.0303 14.6927C19.171 14.8333 19.25 15.0241 19.25 15.223C19.25 15.4219 19.171 15.6127 19.0303 15.7534C18.8897 15.894 18.6989 15.973 18.5 15.973H17Z" fill="#2B2B2B"/>
</g>
</svg>
