<svg width="25" height="25" viewBox="0 0 25 25" fill="none" xmlns="http://www.w3.org/2000/svg">
<g id="typcn:location">
<path id="Vector" d="M18.157 6.27704C15.033 3.20404 9.968 3.20404 6.844 6.27704C6.10229 7.00167 5.51291 7.86727 5.11052 8.82295C4.70813 9.77863 4.50084 10.8051 4.50084 11.842C4.50084 12.879 4.70813 13.9055 5.11052 14.8611C5.51291 15.8168 6.10229 16.6824 6.844 17.407L12.5 22.972L18.157 17.407C18.8987 16.6824 19.4881 15.8168 19.8905 14.8611C20.2929 13.9055 20.5002 12.879 20.5002 11.842C20.5002 10.8051 20.2929 9.77863 19.8905 8.82295C19.4881 7.86727 18.8987 7.00167 18.157 6.27704ZM12.5 14.472C11.832 14.472 11.205 14.212 10.732 13.74C10.2638 13.2708 10.0008 12.635 10.0008 11.972C10.0008 11.3091 10.2638 10.6733 10.732 10.204C11.204 9.73204 11.832 9.47204 12.5 9.47204C13.168 9.47204 13.796 9.73204 14.268 10.204C14.7363 10.6733 14.9992 11.3091 14.9992 11.972C14.9992 12.635 14.7363 13.2708 14.268 13.74C13.796 14.212 13.168 14.472 12.5 14.472Z" fill="#2B2B2B"/>
</g>
</svg>
